<?xml version="1.0" standalone="no"?><!DOCTYPE svg PUBLIC "-//W3C//DTD SVG 1.1//EN" "http://www.w3.org/Graphics/SVG/1.1/DTD/svg11.dtd"><svg t="1715832692440" class="icon" viewBox="0 0 1024 1024" version="1.1" xmlns="http://www.w3.org/2000/svg" p-id="5233" xmlns:xlink="http://www.w3.org/1999/xlink" width="200" height="200"><path d="M540 434c-22.1 0-40-17.9-40-40s17.9-40 40-40c98.5 0 190.6-14.6 259.2-41.2 43.7-17 87.8-44.8 87.8-68.8s-44.1-51.8-87.8-68.8C730.6 148.6 638.5 134 540 134s-190.6 14.6-259.2 41.2C237.1 192.2 193 220 193 244c0 22.1-17.9 40-40 40s-40-17.9-40-40c0-22 7.5-55 43.4-87.9 23.2-21.2 55.3-39.9 95.5-55.5C329.5 70.6 431.8 54 540 54s210.5 16.6 288.1 46.6c40.2 15.6 72.3 34.2 95.5 55.5C959.5 189 967 222 967 244s-7.5 55-43.4 87.9c-23.2 21.2-55.3 39.9-95.5 55.5-77.6 30-179.9 46.6-288.1 46.6zM669.054 689.385c-19.7 0-36.8-14.5-39.6-34.6-3-21.9 12.3-42.1 34.2-45.1 152.4-20.8 223.3-73 223.3-101.7 0-22.1 17.9-40 40-40s40 17.9 40 40c0 33-16.2 81-93.6 122.7-50.6 27.3-119.4 47.5-198.8 58.4-1.8 0.2-3.6 0.3-5.5 0.3z" p-id="5234"></path><path d="M926.52 819.685c-22.1 0-40-17.9-40-40v-543.7c0-22.1 17.9-40 40-40s40 17.9 40 40v543.7c0 22.1-17.9 40-40 40z m-773 0c-22.1 0-40-17.9-40-40v-62.1c0-22.1 17.9-40 40-40s40 17.9 40 40v62.1c0 22.1-17.9 40-40 40z m0-342.8c-22.1 0-40-17.9-40-40v-200.9c0-22.1 17.9-40 40-40s40 17.9 40 40v200.9c0 22.1-17.9 40-40 40z" p-id="5235"></path><path d="M540 970.015c-108.2 0-210.5-16.6-288.1-46.6-40.2-15.6-72.3-34.2-95.5-55.5-35.9-32.9-43.4-65.9-43.4-87.9 0-22.1 17.9-40 40-40s40 17.9 40 40c0 24 44.1 51.8 87.8 68.8 68.6 26.5 160.7 41.2 259.2 41.2s190.6-14.6 259.2-41.2c43.7-17 87.8-44.8 87.8-68.8 0-22.1 17.9-40 40-40s40 17.9 40 40c0 22-7.5 55-43.4 87.9-23.2 21.2-55.3 39.9-95.5 55.5-77.6 30-179.9 46.6-288.1 46.6z" p-id="5236"></path><path d="M343.313 760.923a40.072 40.072 0 0 1-28.284-11.738c-15.627-15.627-15.627-40.941 0-56.568L428.237 579.55 315.029 466.484c-15.627-15.627-15.627-40.941 0-56.569 15.627-15.627 40.941-15.627 56.568 0L513.09 551.266c7.496 7.495 11.738 17.678 11.738 28.284 0 10.607-4.242 20.79-11.738 28.285l-141.492 141.35a39.896 39.896 0 0 1-28.284 11.738z" p-id="5237"></path><path d="M97.5 619.534c-22.1 0-40-17.9-40-39.9 0-22.1 17.8-40 39.9-40.1l338.5-0.5h0.1c22.1 0 40 17.9 40 39.9 0 22.1-17.8 40-39.9 40.1l-338.6 0.5z" p-id="5238"></path></svg>