<?xml version="1.0" standalone="no"?><!DOCTYPE svg PUBLIC "-//W3C//DTD SVG 1.1//EN" "http://www.w3.org/Graphics/SVG/1.1/DTD/svg11.dtd"><svg t="1718343265207" class="icon" viewBox="0 0 1024 1024" version="1.1" xmlns="http://www.w3.org/2000/svg" p-id="6040" xmlns:xlink="http://www.w3.org/1999/xlink" width="200" height="200"><path d="M152 60h720c16.582 0 30-13.418 30-30s-13.418-30-30-30H152c-16.582 0-30 13.418-30 30s13.418 30 30 30zM782 120H242v84.618c0 56.528 14.37 109.848 38.932 157.382h462.136C767.63 314.466 782 261.146 782 204.618V120zM512 785.544c-9.346 4.658-18.222 8.818-26.572 12.744C436.708 821.14 422 828.026 422 872v32h180v-32c0-43.974-14.708-50.86-63.428-73.71-8.35-3.926-17.226-8.086-26.572-12.746z" p-id="6041" fill="#515151"></path><path d="M782 904v-84.618c0-132.192-74.904-248.972-188.464-307.382 43.304-22.276 80.87-53.13 110.922-90H319.542c30.052 36.87 67.618 67.724 110.922 90C316.904 570.41 242 687.192 242 819.382V904h120v-32c0-82.09 45.38-103.388 97.968-128.056A1419.66 1419.66 0 0 0 482 733.376V572c0-16.582 13.418-30 30-30s30 13.418 30 30v161.374a1367.572 1367.572 0 0 0 22.032 10.568C616.62 768.612 662 789.91 662 872v32h120zM872 964H152c-16.582 0-30 13.418-30 30s13.418 30 30 30h720c16.582 0 30-13.418 30-30s-13.418-30-30-30z" p-id="6042" fill="#515151"></path></svg>