<?xml version="1.0" standalone="no"?><!DOCTYPE svg PUBLIC "-//W3C//DTD SVG 1.1//EN" "http://www.w3.org/Graphics/SVG/1.1/DTD/svg11.dtd"><svg t="1722950008222" class="icon" viewBox="0 0 1024 1024" version="1.1" xmlns="http://www.w3.org/2000/svg" p-id="4331" xmlns:xlink="http://www.w3.org/1999/xlink" width="200" height="200"><path d="M745.453 1015.244H308.512c-9.047 0-16.381-7.334-16.381-16.381v-53.789c0-9.047 7.334-16.381 16.381-16.381h436.941c9.047 0 16.381 7.334 16.381 16.381v53.789c0 9.047-7.334 16.381-16.381 16.381zM895.559 10.192H125.15c-71.374 0-93.941 42.273-93.941 93.941v658.836c0 51.667 42.273 93.941 93.941 93.941h770.408c51.667 0 93.941-42.273 93.941-93.941V104.133c0-51.667-42.273-93.941-93.94-93.941z m11.555 723.855c0 25.304-20.703 46.006-46.006 46.006H159.602c-25.303 0-46.006-20.703-46.006-46.006V133.055c0-25.304 20.703-46.006 46.006-46.006h701.506c25.303 0 46.006 20.703 46.006 46.006v600.992z" p-id="4332"></path><path d="M352.338 427.327c-0.018 7.857 1.633 19.89 4.979 35.864a59.43 59.43 0 0 1 1.983-0.033c32.116 0 58.152 26.036 58.152 58.152a57.975 57.975 0 0 1-8.439 30.187c10.48 8.891 18.953 15.116 25.263 18.614 6.586 3.653 17.343 7.922 32.094 12.68 10.709-15.093 28.222-24.515 47.447-24.515 19.253 0 36.789 9.448 47.492 24.577 14.13-4.48 24.648-8.735 31.414-12.64 6.768-3.904 16.471-11.361 28.889-22.275a57.985 57.985 0 0 1-6.443-26.63c0-31.232 24.62-56.713 55.511-58.093 3.131-17.361 4.659-29.463 4.602-35.809-0.063-7.105-1.59-17.282-4.614-30.354-30.885-1.385-55.499-26.863-55.499-58.091a57.998 57.998 0 0 1 6.427-26.6c-11.362-10.307-20.444-17.399-27.044-21.194-6.873-3.953-18.022-8.435-33.266-13.305-10.705 15.112-28.228 24.545-47.469 24.545-19.227 0-36.742-9.421-47.449-24.518-14.763 4.756-25.522 9.023-32.093 12.666-6.273 3.479-14.686 9.67-25.078 18.519a57.99 57.99 0 0 1 8.256 29.887c0 32.116-26.035 58.151-58.152 58.151-0.728 0-1.456-0.015-2.182-0.04-3.185 13.111-4.765 23.26-4.781 30.255z m-43.96-71.67a42.059 42.059 0 0 0 10.523 1.328c23.149 0 41.918-18.769 41.918-41.918 0-10.981-4.219-21.256-11.669-29.021-6.156-6.414-5.772-16.653 0.847-22.589 19.808-17.758 35.752-30.026 48.235-36.947 12.353-6.849 31.715-14.177 58.479-22.269 7.553-2.285 15.63 1.387 18.877 8.578 6.731 14.914 21.586 24.697 38.231 24.697 16.645 0 31.502-9.783 38.234-24.697 3.236-7.169 11.275-10.842 18.817-8.596 27.506 8.198 47.534 15.863 60.465 23.301 12.721 7.315 29.095 20.588 49.589 40.007 5.946 5.633 6.57 14.89 1.432 21.271-5.956 7.394-9.246 16.556-9.246 26.266 0 23.149 18.766 41.918 41.918 41.918a42.42 42.42 0 0 0 6.442-0.491c7.975-1.225 15.584 3.786 17.605 11.598 6.424 24.815 9.74 44.095 9.865 58.269 0.098 10.968-2.216 28.834-6.903 54.316-2.397 13.033-13.76 22.497-27.01 22.497-23.152 0-41.918 18.766-41.918 41.918 0 9.779 3.339 19.002 9.374 26.424 5.261 6.47 4.557 15.921-1.607 21.537-22.018 20.061-39.127 33.644-51.806 40.961-12.923 7.458-32.245 14.857-58.28 22.466a15.715 15.715 0 0 1-18.738-8.619c-6.732-14.913-21.589-24.697-38.234-24.697-16.645 0-31.5 9.787-38.231 24.697-3.249 7.195-11.326 10.866-18.881 8.579-26.742-8.095-46.104-15.433-58.474-22.292-12.524-6.947-28.568-19.26-48.537-37.09-6.678-5.964-7.033-16.292-0.783-22.701 7.596-7.788 11.907-18.166 11.907-29.264 0-23.152-18.769-41.918-41.918-41.918a41.903 41.903 0 0 0-10.712 1.377c-8.576 2.259-17.319-3.019-19.319-11.657-6.803-29.402-10.224-51.367-10.191-66.428 0.031-14.432 3.6-34.184 10.61-59.746 2.269-8.286 10.771-13.214 19.089-11.065z m12.796 4.653" p-id="4333"></path><path d="M513.818 508.956c-43.417 0-78.614-35.198-78.614-78.614 0-43.419 35.197-78.614 78.614-78.614 43.419 0 78.614 35.195 78.614 78.614 0 43.417-35.195 78.614-78.614 78.614z m0-50.862c15.327 0 27.752-12.426 27.752-27.752 0-15.327-12.425-27.752-27.752-27.752-15.326 0-27.752 12.424-27.752 27.752 0 15.326 12.426 27.752 27.752 27.752z m0 21.382" p-id="4334"></path></svg>