<?xml version="1.0" standalone="no"?><!DOCTYPE svg PUBLIC "-//W3C//DTD SVG 1.1//EN" "http://www.w3.org/Graphics/SVG/1.1/DTD/svg11.dtd"><svg t="1717532690125" class="icon" viewBox="0 0 1024 1024" version="1.1" xmlns="http://www.w3.org/2000/svg" p-id="2871" xmlns:xlink="http://www.w3.org/1999/xlink" width="200" height="200"><path d="M910.222222 1017.679012H114.409877c-30.340741 0-54.992593-24.651852-54.992593-54.992592V61.31358c0-30.340741 24.651852-54.992593 54.992593-54.992592H910.222222c30.340741 0 54.992593 24.651852 54.992593 54.992592v901.37284c0 30.340741-24.651852 54.992593-54.992593 54.992592zM114.409877 53.728395c-4.424691 0-7.585185 3.792593-7.585186 7.585185v901.37284c0 4.424691 3.792593 7.585185 7.585186 7.585185H910.222222c4.424691 0 7.585185-3.792593 7.585185-7.585185V61.31358c0-4.424691-3.792593-7.585185-7.585185-7.585185H114.409877z" fill="#999999" p-id="2872"></path><path d="M580.266667 204.167901H171.298765c-13.274074 0-23.387654-10.745679-23.387654-23.387654s10.745679-23.387654 23.387654-23.387654h409.6c13.274074 0 23.387654 10.745679 23.387655 23.387654s-10.745679 23.387654-24.019753 23.387654zM580.266667 415.920988H171.298765c-13.274074 0-23.387654-10.745679-23.387654-23.387655 0-13.274074 10.745679-23.387654 23.387654-23.387654h409.6c13.274074 0 23.387654 10.745679 23.387655 23.387654s-10.745679 23.387654-24.019753 23.387655zM580.266667 627.041975H171.298765c-13.274074 0-23.387654-10.745679-23.387654-23.387654s10.745679-23.387654 23.387654-23.387654h409.6c13.274074 0 23.387654 10.745679 23.387655 23.387654s-10.745679 23.387654-24.019753 23.387654zM580.266667 838.795062H171.298765c-13.274074 0-23.387654-10.745679-23.387654-23.387655 0-13.274074 10.745679-23.387654 23.387654-23.387654h409.6c13.274074 0 23.387654 10.745679 23.387655 23.387654s-10.745679 23.387654-24.019753 23.387655zM746.508642 838.795062c-10.11358 0-18.330864-6.320988-22.123457-15.170371l-49.935802-129.580247c-1.264198-2.528395-2.528395-10.11358-2.528395-13.274074V235.77284c0-20.22716 16.434568-36.02963 36.029629-36.02963h79.012346c20.22716 0 36.02963 16.434568 36.02963 36.02963v444.99753c0 3.160494-1.264198 10.745679-2.528395 13.906173l-51.832099 128.948148c-3.792593 9.481481-12.641975 15.17037-22.123457 15.170371z m-27.180247-591.644445v434.251852l27.812346 70.162963 29.708642-73.955555-0.632099-429.827161h-56.888889z" fill="#999999" p-id="2873"></path><path d="M788.22716 328.691358h-87.229629c-13.274074 0-23.387654-10.745679-23.387654-23.387654s10.745679-23.387654 23.387654-23.387655h87.229629c13.274074 0 23.387654 10.745679 23.387655 23.387655s-10.11358 23.387654-23.387655 23.387654zM793.916049 713.007407h-79.012345c-13.274074 0-23.387654-10.745679-23.387655-23.387654 0-13.274074 10.745679-23.387654 23.387655-23.387654h79.012345c13.274074 0 23.387654 10.745679 23.387655 23.387654 0.632099 13.274074-10.11358 23.387654-23.387655 23.387654z" fill="#999999" p-id="2874"></path></svg>