<?xml version="1.0" standalone="no"?><!DOCTYPE svg PUBLIC "-//W3C//DTD SVG 1.1//EN" "http://www.w3.org/Graphics/SVG/1.1/DTD/svg11.dtd"><svg t="1720704582680" class="icon" viewBox="0 0 1024 1024" version="1.1" xmlns="http://www.w3.org/2000/svg" p-id="6847" xmlns:xlink="http://www.w3.org/1999/xlink" width="200" height="200"><path d="M909.459227 271.381974L649.613734 19.227468a65.373391 65.373391 0 0 0-45.596567-18.678112H192.549356S94.763948 6.042918 94.763948 95.587983v832.274678a98.334764 98.334764 0 0 0 97.785408 95.587983H830.901288s97.785408-4.39485 97.785407-95.587983V316.978541a60.978541 60.978541 0 0 0-19.227468-45.596567zM649.613734 108.223176l170.849785 164.806867h-138.437768a32.961373 32.961373 0 0 1-32.412017-30.214592V108.223176zM863.862661 927.862661a31.862661 31.862661 0 0 1-32.961373 32.412017H192.549356a34.060086 34.060086 0 0 1-32.961373-32.412017V95.587983c0-29.665236 32.961373-31.862661 32.961373-31.862661h391.690987v179.090129c0 88.995708 97.785408 96.137339 97.785408 96.137339H863.862661z m0 0" p-id="6848"></path><path d="M407.347639 687.793991l61.527897-26.369098 118.660945-131.296138 10.987124-12.635193 24.171674-26.918455-40.103004-36.25751-24.171674 26.918455-128.549356 142.832618z m85.150215 0a24.72103 24.72103 0 0 1-13.184549 7.690988l-84.600859 36.25751a28.566524 28.566524 0 0 1-19.776824-7.141631 27.467811 27.467811 0 0 1-8.240343-16.480686v-2.746781l27.467811-87.896996a20.32618 20.32618 0 0 1 6.592275-13.18455l129.098712-143.381974v-3.296137l26.369099-24.171674a34.060086 34.060086 0 0 1 24.171674-11.536481 35.708155 35.708155 0 0 1 25.270386 8.7897l39.553648 36.257511a34.609442 34.609442 0 0 1 2.746781 49.44206l-12.635193 13.733905z m0 0M350.763948 759.759657h322.472104v38.454935H350.763948z" fill="#F36018" p-id="6849"></path></svg>