<?xml version="1.0" standalone="no"?><!DOCTYPE svg PUBLIC "-//W3C//DTD SVG 1.1//EN" "http://www.w3.org/Graphics/SVG/1.1/DTD/svg11.dtd"><svg t="1720431823976" class="icon" viewBox="0 0 1024 1024" version="1.1" xmlns="http://www.w3.org/2000/svg" p-id="4319" xmlns:xlink="http://www.w3.org/1999/xlink" width="200" height="200"><path d="M545.114428 993.432836H61.134328c-15.283582 0-25.472637-10.189055-25.472636-25.472637V50.945274c0-15.283582 10.189055-25.472637 25.472636-25.472637h860.975125c15.283582 0 25.472637 10.189055 25.472637 25.472637v351.522388c0 15.283582-10.189055 25.472637-25.472637 25.472637s-25.472637-10.189055-25.472637-25.472637V76.41791H86.606965v866.069652h458.507463c15.283582 0 25.472637 10.189055 25.472637 25.472637s-10.189055 25.472637-25.472637 25.472637z" fill="#707070" p-id="4320"></path><path d="M203.781095 310.766169c-15.283582 0-25.472637-10.189055-25.472637-25.472637s10.189055-25.472637 25.472637-25.472636h570.587064c15.283582 0 25.472637 10.189055 25.472637 25.472636s-10.189055 25.472637-25.472637 25.472637H203.781095zM203.781095 540.0199c-15.283582 0-25.472637-10.189055-25.472637-25.472636s10.189055-25.472637 25.472637-25.472637h275.104477c15.283582 0 25.472637 10.189055 25.472637 25.472637s-10.189055 25.472637-25.472637 25.472636H203.781095zM203.781095 764.179104c-15.283582 0-25.472637-10.189055-25.472637-25.472636s10.189055-25.472637 25.472637-25.472637h275.104477c15.283582 0 25.472637 10.189055 25.472637 25.472637s-10.189055 25.472637-25.472637 25.472636H203.781095zM993.432836 529.830846c-5.094527-15.283582-15.283582-15.283582-25.472637-20.37811l-101.890547-50.945273c-40.756219-20.378109-61.134328 0-71.323383 20.378109l-193.59204 346.427861c-5.094527 5.094527-5.094527 15.283582-5.094528 15.283582 0 35.661692 10.189055 101.890547 20.37811 137.552239 0 10.189055 10.189055 15.283582 10.189055 15.283582s10.189055 5.094527 25.472636-5.094528c127.363184-40.756219 132.457711-61.134328 137.552239-66.228855l193.59204-346.427861c5.094527-15.283582 15.283582-30.567164 10.189055-45.850746z m-147.741294-30.567164l91.701493 50.945273c5.094527 5.094527 0 10.189055 0 10.189055l-15.283582 25.472637-101.890548-56.039801 15.283583-25.472637c5.094527-5.094527 10.189055-5.094527 10.189054-5.094527z m-193.59204 448.318408c-5.094527-35.661692-10.189055-66.228856-10.189054-101.890548l101.890547 56.039801-5.094527 5.094528c-5.094527 10.189055-45.850746 25.472637-86.606966 40.756219zM764.179104 866.069652l-101.890547-56.039801 137.552239-239.442786 101.890547 56.039801L764.179104 866.069652z" fill="#707070" p-id="4321"></path></svg>